<?xml version="1.0" encoding="utf-8"?>
<!-- Generator: Adobe Illustrator 23.0.1, SVG Export Plug-In . SVG Version: 6.00 Build 0)  -->
<svg version="1.1" id="レイヤー_1" xmlns="http://www.w3.org/2000/svg" xmlns:xlink="http://www.w3.org/1999/xlink" x="0px"
	 y="0px" viewBox="0 0 1036.6 105.2" style="enable-background:new 0 0 1036.6 105.2;" xml:space="preserve">
<style type="text/css">
	.st0{fill:#FFFFFF;}
	.st1{fill:none;stroke:#FFFFFF;}
</style>
<g>
	<path class="st0" d="M0.5,102V6.1h29.9l27.1,70.2L84.3,6.1h30.3V102H92.5V33.4L66,102H49L22.6,33.4V102H0.5z"/>
	<path class="st0" d="M196.7,33h20.2v69h-20.2v-9.6c-5.4,7.7-13.6,12.3-23.4,12.3c-19.4,0-33-15.4-33-37.2s13.6-37.2,33-37.2
		c9.8,0,18.1,4.6,23.4,12.3V33z M196.6,67.5c0-11.2-7.5-19.4-18.1-19.4c-10.5,0-18.1,8.2-18.1,19.4s7.5,19.4,18.1,19.4
		C189,86.9,196.6,78.7,196.6,67.5z"/>
	<path class="st0" d="M263.4,2v56.5L286.7,33h24.5l-29.9,32.3L312,102h-24.5l-24.1-29.6V102h-20.2V2H263.4z"/>
	<path class="st0" d="M361.1,104.7c-22.6,0-38.3-15.2-38.3-37.2s15.6-37.2,38.3-37.2c22.8,0,38.4,15.2,38.4,37.2
		S383.9,104.7,361.1,104.7z M361.1,48.1c-10.5,0-18.1,8.1-18.1,19.4s7.5,19.4,18.1,19.4c10.6,0,18.2-8.1,18.2-19.4
		S371.8,48.1,361.1,48.1z"/>
	<path class="st0" d="M425.9,48.4h-9.7V33h10.6l2.3-17.4h17V33h15.6v15.4h-15.6v29.2c0,5.8,3.5,9.7,9.2,9.7c1.9,0,4.9-0.4,7.1-0.9
		l-0.1,16.2c-4,1.3-9.4,2.2-13.7,2.2c-13.7,0-22.6-10.4-22.6-25.1V48.4z"/>
	<path class="st0" d="M518,104.7c-22.6,0-38.3-15.2-38.3-37.2s15.6-37.2,38.3-37.2c22.8,0,38.4,15.2,38.4,37.2
		S540.8,104.7,518,104.7z M518,48.1c-10.5,0-18.1,8.1-18.1,19.4s7.5,19.4,18.1,19.4c10.6,0,18.2-8.1,18.2-19.4S528.6,48.1,518,48.1z
		"/>
	<path class="st0" d="M635.5,102V6.1h22.6v37.1h39.6V6.1h22.6V102h-22.6V61.4h-39.6V102H635.5z"/>
	<path class="st0" d="M759.9,1.1c6.9,0,11.7,4.7,11.7,11.3c0,6.7-4.9,11.5-11.7,11.5c-6.9,0-11.7-4.7-11.7-11.5
		C748.2,5.8,753,1.1,759.9,1.1z M770,102h-20.2V33H770V102z"/>
	<path class="st0" d="M843,32.2v17.9c-3.9-1.6-8.4-2.6-11.3-2.6c-8.8,0-14.6,7.4-14.6,17.8V102h-20.2V33h19.4v8.8
		c4-6.9,10.8-11.3,18.5-11.3C837.5,30.5,840.3,31.1,843,32.2z"/>
	<path class="st0" d="M916.3,33h20.2v69h-20.2v-9.6c-5.4,7.7-13.6,12.3-23.4,12.3c-19.4,0-33-15.4-33-37.2s13.6-37.2,33-37.2
		c9.8,0,18.1,4.6,23.4,12.3V33z M916.2,67.5c0-11.2-7.5-19.4-18.1-19.4c-10.5,0-18.1,8.2-18.1,19.4s7.5,19.4,18.1,19.4
		C908.6,86.9,916.2,78.7,916.2,67.5z"/>
	<path class="st0" d="M997.7,104.7c-22.6,0-38.3-15.2-38.3-37.2s15.6-37.2,38.3-37.2c22.8,0,38.4,15.2,38.4,37.2
		S1020.4,104.7,997.7,104.7z M997.7,48.1c-10.5,0-18.1,8.1-18.1,19.4s7.5,19.4,18.1,19.4c10.6,0,18.2-8.1,18.2-19.4
		S1008.3,48.1,997.7,48.1z"/>
</g>
<text transform="matrix(1 0 0 1 195.8149 -1525.3623)" style="font-family:'Prestage'; font-size:119.5749px; letter-spacing:9;">MAKOTO HIRAO</text>
<text transform="matrix(1 0 0 1 195.8149 -1364.3623)" style="font-family:'Prestage'; font-size:119.5749px; letter-spacing:9;">MAKOTO HIRAO</text>
<g>
	<path class="st1" d="M0.5-1059v-95.9h29.9l27.1,70.2l26.8-70.2h30.3v95.9H92.5v-68.6L66-1059H49l-26.4-68.6v68.6H0.5z"/>
	<path class="st1" d="M196.7-1128h20.2v69h-20.2v-9.6c-5.4,7.7-13.6,12.3-23.4,12.3c-19.4,0-33-15.4-33-37.2
		c0-21.8,13.6-37.2,33-37.2c9.8,0,18.1,4.6,23.4,12.3V-1128z M196.6-1093.5c0-11.2-7.5-19.4-18.1-19.4c-10.5,0-18.1,8.2-18.1,19.4
		s7.5,19.4,18.1,19.4C189-1074.1,196.6-1082.3,196.6-1093.5z"/>
	<path class="st1" d="M263.4-1159v56.5l23.3-25.5h24.5l-29.9,32.3L312-1059h-24.5l-24.1-29.6v29.6h-20.2v-100H263.4z"/>
	<path class="st1" d="M361.1-1056.3c-22.6,0-38.3-15.2-38.3-37.2s15.6-37.2,38.3-37.2c22.8,0,38.4,15.2,38.4,37.2
		S383.9-1056.3,361.1-1056.3z M361.1-1112.9c-10.5,0-18.1,8.1-18.1,19.4s7.5,19.4,18.1,19.4c10.6,0,18.2-8.1,18.2-19.4
		S371.8-1112.9,361.1-1112.9z"/>
	<path class="st1" d="M425.9-1112.6h-9.7v-15.4h10.6l2.3-17.4h17v17.4h15.6v15.4h-15.6v29.2c0,5.8,3.5,9.7,9.2,9.7
		c1.9,0,4.9-0.4,7.1-0.9l-0.1,16.2c-4,1.3-9.4,2.2-13.7,2.2c-13.7,0-22.6-10.4-22.6-25.1V-1112.6z"/>
	<path class="st1" d="M518-1056.3c-22.6,0-38.3-15.2-38.3-37.2s15.6-37.2,38.3-37.2c22.8,0,38.4,15.2,38.4,37.2
		S540.8-1056.3,518-1056.3z M518-1112.9c-10.5,0-18.1,8.1-18.1,19.4s7.5,19.4,18.1,19.4c10.6,0,18.2-8.1,18.2-19.4
		S528.6-1112.9,518-1112.9z"/>
	<path class="st1" d="M635.5-1059v-95.9h22.6v37.1h39.6v-37.1h22.6v95.9h-22.6v-40.6h-39.6v40.6H635.5z"/>
	<path class="st1" d="M759.9-1159.9c6.9,0,11.7,4.7,11.7,11.3c0,6.7-4.9,11.5-11.7,11.5c-6.9,0-11.7-4.7-11.7-11.5
		C748.2-1155.2,753-1159.9,759.9-1159.9z M770-1059h-20.2v-69H770V-1059z"/>
	<path class="st1" d="M843-1128.8v17.9c-3.9-1.6-8.4-2.6-11.3-2.6c-8.8,0-14.6,7.4-14.6,17.8v36.6h-20.2v-69h19.4v8.8
		c4-6.9,10.8-11.3,18.5-11.3C837.5-1130.5,840.3-1129.9,843-1128.8z"/>
	<path class="st1" d="M916.3-1128h20.2v69h-20.2v-9.6c-5.4,7.7-13.6,12.3-23.4,12.3c-19.4,0-33-15.4-33-37.2
		c0-21.8,13.6-37.2,33-37.2c9.8,0,18.1,4.6,23.4,12.3V-1128z M916.2-1093.5c0-11.2-7.5-19.4-18.1-19.4c-10.5,0-18.1,8.2-18.1,19.4
		s7.5,19.4,18.1,19.4C908.6-1074.1,916.2-1082.3,916.2-1093.5z"/>
	<path class="st1" d="M997.7-1056.3c-22.6,0-38.3-15.2-38.3-37.2s15.6-37.2,38.3-37.2c22.8,0,38.4,15.2,38.4,37.2
		S1020.4-1056.3,997.7-1056.3z M997.7-1112.9c-10.5,0-18.1,8.1-18.1,19.4s7.5,19.4,18.1,19.4c10.6,0,18.2-8.1,18.2-19.4
		S1008.3-1112.9,997.7-1112.9z"/>
</g>
</svg>
